<svg xmlns="http://www.w3.org/2000/svg" xmlns:xlink="http://www.w3.org/1999/xlink" id="Layer_1" viewBox="0 0 172.2 152.1" style="enable-background:new 0 0 172.2 152.1;"><style><![CDATA[.st0{fill:#007D67;} .st1{clip-path:url(#SVGID_2_);} .st2{fill:none;stroke:#007D67;stroke-width:7.93;stroke-linecap:round;stroke-linejoin:round;} .st3{fill:#FFFFFF;} .st4{clip-path:url(#SVGID_4_);} .st5{fill:#BBE6FB;} .st6{fill:#B9D87C;}]]></style><title>logo</title><g><use xlink:href="#G" class="st0"/><g><defs><rect id="SVGID_1_" width="172.2" height="152.1" x="0" y="0"/></defs><clipPath id="SVGID_2_"><use xlink:href="#SVGID_1_" style="overflow:visible"/></clipPath><g class="st1 st2"><use xlink:href="#G"/></g></g><path class="st3" d="M160.9 76.1c0 41-33.3 74.3-74.3 74.3s-74.3-33.3-74.3-74.3S45.6 1.8 86.6 1.8s74.3 33.2 74.3 74.3z"/><path class="st0" d="M86.6 3.6c-40 0-72.5 32.5-72.5 72.5s32.5 72.5 72.5 72.5 72.5-32.5 72.5-72.5c0-40.1-32.5-72.5-72.5-72.5zm0 148.5c-42 0-76.1-34.1-76.1-76.1S44.6 0 86.6 0s76.1 34.1 76.1 76.1c-.1 42-34.1 76-76.1 76z"/><g><defs><path id="SVGID_3_" d="M153.5 75.8c0 36.9-30 66.9-66.9 66.9s-66.9-30-66.9-66.9 30-66.9 66.9-66.9 66.9 30 66.9 66.9z"/></defs><clipPath id="SVGID_4_"><use xlink:href="#SVGID_3_" style="overflow:visible"/></clipPath><g class="st4"><path class="st5" d="M153.3 80.1l.1-4.5c0-36.9-29.9-66.8-66.8-66.8-17.7 0-34.7 7-47.2 19.5a67.16 67.16 0 0 0-19.5 47.3c0 1.5 0 3 .1 4.5h133.3z"/><path class="st6" d="M208.4 110.1L3.5 85.3 6 64.6C73.1 31.3 153.6 41 210.9 89.3l-2.5 20.8z"/><path class="st0" d="M91.9 42.2l.7-2.8 7.5-.1.4 1.4-8.6 1.5zm2.1-8.6l1.8 1.6-2.8 2.4 1-4zm.9-3.7l1.2.4.4-5 1.8 7h-4l.6-2.4zm1.6 4.6L95 33.2h2.9l-1.4 1.3zm0 1.3l2.8 2.5h-5.7l2.9-2.5zm3.1 1.5l-2.5-2.2 1.5-1.4 1 3.6zM153.2 57c-.9-.8-1.5-1.7-1.9-2.8-.2-.6-.2-1.2 0-1.8l-2.4-7c-6.6-2.6-13.4-4.3-20.4-5.2v-5.5h.9v-.3c0-.2-.5-3.6-1.8-5.5-.9-1.2-2.1-2.2-3.5-2.9 0 0-2.1 0-4.5.1v-1h.2l-2.2-1.7v-.7h.7c.1.1.2.2.4.2s.4-.1.4-.3-.2-.3-.4-.3c-.1 0-.2 0-.3.1h-.7v-.6c0-.1 0-.2-.1-.3-.1 0-.2 0-.3.1v.1c0 .1 0 .2.1.2v.2h-.6c-.1-.1-.2-.1-.3-.1-.2 0-.4.1-.4.3s.2.3.4.3a.76.76 0 0 0 .4-.2h.5v.7l-2.2 1.7h.2v1l-5 .2c-4.6.9-5.8 6.9-5.8 7.2l.6.1V40c-1.4.1-2.8.3-4.2.5l.5-.1-.4-1.6c0-.1 0-.2-.1-.3l-3.3-13 2.4 3.8 2.5-2.4-5-3.2.1-.1 5.2.8V21l-5 1.5c0-.1-.1-.2-.2-.3l3.5-4.2-3.2-1.5-1.2 5.2h-.6l-.7-5.4-3.1 1.3 3.1 4.6c-.1.1-.1.2-.2.3L90.9 19l-1.4 3 5.7 1.3v.1l-5.6 1 1.3 3.1 4.7-3.4.2.1-3.2 5.1 1.4.4-3.1 12.8a71.89 71.89 0 0 0-6.3 1.5C66.2 35.7 46 32.6 26 35.1c-2.1 3.3-3.8 6.8-6.9 9.4-.3.3-.7.5-1.2.7-.5 1.7-1 3.4-1.4 5.1-1.1 4.2-2 8.4-2.6 12.7l.3-.1c1-.4 2-.9 3-1.3l1-.4c1.3-.5 2.6-1.1 3.9-1.6l.6-.2c1.1-.4 2.3-.9 3.4-1.3l1.1-.4c1.1-.4 2.1-.7 3.2-1.1l.9-.3c1.3-.4 2.7-.9 4-1.3l.7-.2c1.1-.3 2.2-.7 3.4-1l1.1-.3 3.6-.9.5-.1c1.4-.3 2.8-.7 4.2-1l.8-.2c1.2-.3 2.3-.5 3.5-.7l.9-.2 8.4-1.4.7-.1c1.2-.2 2.4-.3 3.6-.5l.7-.1 8.6-.8h.7c1.3-.1 2.6-.2 3.9-.2h.4l8.8-.2h.5c1.4 0 2.9 0 4.3.1 3 .1 6 .2 8.9.5h.4c4.5.3 8.9.8 13.3 1.5h.2c2.9.4 5.9 1 8.8 1.5-6-.5-12.1-.8-18.2-.9-3.2-.1-6.3-.1-9.5 0-3.2 0-6.3.3-9.5.5-6.3.5-12.5 1.2-18.5 2-3 .4-5.9.9-8.8 1.5l-8.4 1.8c-5.5 1.3-10.6 2.5-15.3 4l-12.8 4.2c-3.8 1.3-7.1 2.7-9.8 3.8l-2.2.9c-.1 1-.2 1.9-.2 2.9-.1.9-.2 1.9-.2 2.8a77.49 77.49 0 0 1 4.6-2.1c2.6-1.1 5.7-2.6 9.4-4l12.4-4.5c4.6-1.6 9.6-2.9 15-4.3 2.7-.7 5.4-1.3 8.2-2 2.8-.6 5.7-1.2 8.7-1.7 5.9-1 12-1.8 18.2-2.4l9.4-.8c3.2-.2 6.3-.2 9.4-.2 6.3 0 12.5.1 18.7.5l4.6.3c1.5.2 3 .3 4.5.5h.4c-2.2-.1-4.4-.2-6.7-.2-6.1 0-12.3.2-18.5.7-6.2.4-12.4 1.1-18.6 2.1-6.1 1-12.1 2.2-17.9 3.5-1.4.3-2.9.7-4.3 1l-4.2 1.2c-2.7.8-5.4 1.6-8 2.5-5.2 1.7-10.1 3.3-14.5 5.2l-12 5.2c-3.5 1.6-6.6 3.2-9.1 4.5l-1.6.8c2.7.3 5.5.7 8.2 1.2 1.3-.7 2.8-1.5 4.4-2.2 3.4-1.7 7.3-3.5 11.6-5.4s9-3.5 14-5.3c2.5-.9 5.1-1.8 7.8-2.6l4.1-1.2c1.4-.4 2.8-.8 4.2-1.1 5.6-1.5 11.5-2.8 17.5-3.9 6-1.2 12.1-2 18.3-2.5 6.1-.6 12.3-1 18.3-1.1 3-.1 6-.1 9 0l8.7.4h.4l.4.1h-3.5c-2.8 0-5.7.1-8.6.2s-5.9.2-8.9.6c-6 .6-12 1.4-18 2.4-6 .9-12 2.2-17.8 3.8s-11.5 3.3-17 5.1-10.6 4-15.5 6c-4.2 1.8-8.1 3.6-11.7 5.4l10.6-.5 2.8-1.3c4.7-2.2 9.7-4.4 15-6.3s10.9-3.8 16.6-5.4c5.8-1.7 11.6-3 17.5-4.1 5.9-1.2 11.9-2.1 17.7-2.9 2.9-.4 5.9-.6 8.8-.8s5.8-.3 8.6-.4l2.4-.1-7.7.7c-5.5.6-11.2 1.3-16.8 2.5s-11.4 2.6-17.1 4.2c-5.7 1.5-11.3 3.3-16.7 5.4s-10.7 4.3-15.7 6.6c-.6.3-1.2.5-1.7.8A132.28 132.28 0 0 1 80 78c3.1-1.5 6.3-2.9 9.6-4.2 5.3-2.2 10.8-4.2 16.3-5.8 5.6-1.7 11.2-3.2 16.8-4.6s11.2-2.2 16.6-3a191.61 191.61 0 0 1 10.3-1.2h-.1c-4.7.8-9.6 1.8-14.6 3s-10.2 2.5-15.3 4.2-10.2 3.8-15.2 5.8c-2.5 1-5 2.1-7.4 3.2L93.1 77l-1.9 1h1.2l4.8.2.8-.4c2.4-1.2 4.8-2.3 7.2-3.4 4.9-2.2 9.8-4.3 14.8-6.1s10.1-3.2 15-4.6 9.8-2.5 14.4-3.4l1.7-.4-4.8 1.5c-5.3 1.8-10.6 3.9-15.8 6.1-5.2 2.1-10.3 4.6-15.3 7.2l-7.2 4c1.9.1 3.8.2 5.7.4l3-1.8c4.8-2.8 9.8-5.3 14.8-7.5a337.02 337.02 0 0 1 15.4-6.5c2.1-.8 4.2-1.5 6.4-2.2-3.4 1.5-6.8 3.1-10.2 4.9-4.7 2.6-9.4 5.4-14 8.3l-6.8 4.5-1.1.8 4.3.4 5.1-3.6c4.4-3 9-5.9 13.5-8.6 3.6-2.1 7.3-3.9 10.9-5.7-.5-1.7-1.2-3.4-1.8-5.1zM145 81.3c3.4-3.4 7-6.9 10.8-10.3.6-.6 1.2-1.1 1.9-1.7-.3-1-.6-2-1-3-1 .8-2 1.6-2.9 2.4a330.26 330.26 0 0 0-12.1 10.9l-1.4 1.3c1.6.2 3.2.3 4.7.4zm-8.8-.5l2.4-2.2 6.1-5.2c3.7-3 7.6-6 11.4-8.8-.2-.7-.5-1.4-.8-2.1-4.2 2.8-8.3 5.8-12.3 8.9-2.2 1.6-4.3 3.3-6.4 5-1 .9-2.1 1.7-3.1 2.6-.6.5-1.1 1-1.6 1.5l4.3.3z"/><path class="st6" d="M19.9,81.6c3.1,36.8,35.4,64.2,72.3,61.2c32.6-2.7,58.5-28.6,61.2-61.2H19.9z"/></g></g><path class="st3" d="M155.3 84.1h-138v-5a368.62 368.62 0 0 1 138.1 0l-.1 5z"/><path class="st3" d="M162.9 80.3c-8.2-1.5-21.2-8.3-74.3-8.3s-73.8 7.9-79.2 9c-4 .8-6.6 4.7-5.7 8.7 0 .2.1.4.1.6.4 1.9 1 3.8 1.6 5.7 1.5 4.7 3.2 9.4 4.8 14.1 1.5 4.1 3.8 8.5 4.8 12.9-1.1-4.8 24.1-12.6 71.1-12.6s70.7 6.4 71.2 11.8c1-4.4 3.2-8.5 4.7-12.8 1.7-4.7 3.4-9.4 4.8-14.1.6-1.9 1.2-3.8 1.6-5.7 1.1-3.9-1.1-8-5-9.1-.2-.1-.4-.1-.5-.2z"/><path class="st0" d="M30.3 107.2c6.9-1 12.2-6.6 11.4-13.7S34.4 82.2 27 83.2s-12.4 7-11.1 13.9c.5 3.3 2.3 6.2 5.1 8 2.7 1.8 6.1 2.5 9.3 2.1zm-.2-2.4c-5 .7-7.3-4.9-7.9-8.8-.4-2-.3-4.1.4-6.1.7-2.2 2.5-3.9 4.9-4.3 5.3-.8 7.5 4.8 8 8.8s-.3 9.7-5.4 10.4zm15.7 0c-.7.1-1.7.1-1.8-.9-.1-.7.4-.9.9-1.2.8-.6 1.5-1.3 1.8-2.3l4.7-7.7c-2.6-2.3-4.9-4.9-6.9-7.7-.3-.5-.8-.9-1.4-1.1s-1.2-.4-1.2-1.1.4-1 1-1.1l7.2-.7c.7 0 1.7 0 1.7.9s-1 1-1 1.6c.1.8 4.2 4.9 5 5.8.8-1.1 3.7-5 3.7-6.1-.1-.9-1.7-.7-1.8-1.8 0-.8.8-.9 1.4-1l3.8-.2c.8 0 2.2-.2 2.2.9 0 .7-.5.9-1 1.3-.4.2-.8.5-1 .9L62 85.2l-4.2 5.9c2.2 2.4 4.3 4.8 6.4 7.2l1 1.4a3.53 3.53 0 0 0 1.7 1.5c.5.2.9.5.9 1 0 1-1 1.1-1.8 1.1-2.4.1-4.8.3-7.1.4-.5-.2-1-.4-1-1-.1-.9 1.1-1 1.1-1.4 0-.8-4.7-5.9-5.7-6.7-.9 1.2-3.6 5.7-3.5 6.9.1 1 1.5.9 1.6 1.9 0 .6-.3.9-.8 1l-4.8.4zm32.3-12l4.9-1.2c2.1.5 3.6 2.3 3.8 4.4 0 3.3-2.9 4.5-5.8 4.5-.8.1-1.6-.1-2.2-.4-.6-.5-.5-1.2-.5-1.8l-.2-5.5zm6.7 10c2.1.1 4.1-.5 5.8-1.6 1.6-1.1 2.5-2.9 2.6-4.8.1-3.5-2.8-5.7-6.1-6.3 2.2-.9 4.7-2.7 4.7-5.3 0-1.8-1.1-3.4-2.7-4.2s-3.4-1.1-5.2-1c-4.1 0-8.2.1-12.2.2-.7 0-1.6.3-1.6 1.1 0 .6.4.8.8 1l.4.2c.8.3.6 1.1.7 1.7l.5 15.1c0 .7.2 1.4-.5 1.8l-.3.2c-.4.3-.8.5-.7 1 0 .8.9 1 1.6 1 3.9-.1 8-.2 12.2-.1zM78 84.1c-.1-.6 0-1.2.3-1.8a3.48 3.48 0 0 1 2.4-.6c2.1 0 4.6.3 4.6 2.8 0 3.3-4.4 5-7.3 5.6v-6zm30.5 19.8c6.9.4 13.2-4.1 13.9-11.2s-5-12.5-12.4-13-13.5 4.5-13.6 11.5c-.1 3.3 1.1 6.5 3.4 8.8s5.4 3.6 8.7 3.9zm.2-2.4c-5-.3-6.2-6.2-6-10.1 0-2.1.5-4.1 1.5-5.9 1.1-2.1 3.3-3.4 5.6-3.2 5.4.3 6.4 6.2 6.1 10.2s-2 9.3-7.2 9zm27.6.5c-.6 1.1-1.2 2.2-2 3.2-.6.7-1.5.9-2.4.7-2.2-.3-2.5-1.2-3.1-3.2-1.4-4.9-2.3-10-2.6-15.1l-.2-2.4c-.1-.9 0-1.1-.7-1.7-.4-.2-.6-.7-.6-1.1.1-1.2 1.5-.9 2.4-.8l5.4.6c.8.1 1.7.3 1.6 1.3-.1.5-.5.7-.9.9-.7.3-.9.4-1 1.2-.1 2.6.1 5.2.5 7.7l1.5 7.4c2.3-4.1 4.2-8.3 4.8-13 .1-1.1.4-2-.6-2.8-.3-.3-.7-.5-.6-1 .1-.9 1-.9 1.8-.8 2 .3 4 .5 6.1.8.8.1 1.5.4 1.4 1.3-.2 1.1-1.8.4-2 2-.2 1.8.3 6 .6 7.9l1.7 7.5 3.3-6.1c1.2-2.4 2.1-4.8 2.7-7.4.4-2.2-1.9-1.9-1.7-3.3.2-1.2 1.8-.8 2.6-.6l2.9.5c.7.1 1.6.4 1.5 1.2-.1.4-.4.6-.8.8-.7.3-1.2.8-1.4 1.5l-1.1 3.1c-1.2 3.3-2.6 6.5-4.3 9.6l-1.8 2.9c-.5.9-1.1 1.7-1.8 2.5-.7.5-1.6.6-2.4.4-1.2 0-2.3-.8-2.6-2-1.4-3.5-1.9-7.3-2.7-11-1.3 2.4-2.5 4.8-3.5 7.3zm-89.9 16.3l-1 2.7h1.9l-.9-2.7zm1.8 5.1l-.5-1.4h-2.5l-.5 1.4h-1.2l2.5-6.3h1l2.5 6.3h-1.3z"/><polygon class="st0" points="55.7,123.4 52.5,119 52.5,123.4 51.3,123.4 51.3,117.1 52.5,117.1 55.7,121.4 55.7,117.1 56.8,117.1 56.8,123.4 55.7,123.4 "/><polygon class="st0" points="59.6,123.4 59.6,117.1 60.8,117.1 60.8,123.4 59.6,123.4 "/><polygon class="st0" points="68.8,123.4 68.8,119.2 67.1,122.3 66.4,122.3 64.7,119.2 64.7,123.4 63.5,123.4 63.5,117.1 64.7,117.1 66.7,120.7 68.8,117.1 69.9,117.1 69.9,123.4 68.8,123.4 "/><path class="st0" d="M74.8 118.3l-1 2.7h2l-1-2.7zm1.9 5.1l-.6-1.4h-2.5l-.6 1.4h-1.1l2.4-6.3h1.1l2.4 6.3h-1.1z"/><polygon class="st0" points="79.8,123.4 79.8,117.1 81,117.1 81,122.3 84.1,122.3 84.1,123.4 79.8,123.4 "/><polygon class="st0" points="93.3,123.4 93.3,120.7 90.3,120.7 90.3,123.4 89.1,123.4 89.1,117.1 90.3,117.1 90.3,119.6 93.3,119.6 93.3,117.1 94.5,117.1 94.5,123.4 93.3,123.4 "/><polygon class="st0" points="97.2,123.4 97.2,117.1 101.7,117.1 101.7,118.1 98.4,118.1 98.4,119.6 101.5,119.6 101.5,120.6 98.4,120.6 98.4,122.3 101.7,122.3 101.7,123.4 97.2,123.4 "/><path class="st0" d="M106.3 118.3l-1 2.7h1.9l-.9-2.7zm1.8 5.1l-.5-1.4h-2.5l-.5 1.4h-1.2l2.4-6.3h1.1l2.4 6.3h-1.2z"/><polygon class="st0" points="111.2,123.4 111.2,117.1 112.5,117.1 112.5,122.3 115.6,122.3 115.6,123.4 111.2,123.4 "/><polygon class="st0" points="119.7,118.1 119.7,123.4 118.5,123.4 118.5,118.1 116.4,118.1 116.4,117.1 121.8,117.1 121.8,118.1 119.7,118.1 "/><polygon class="st0" points="127.9,123.4 127.9,120.7 125,120.7 125,123.4 123.8,123.4 123.8,117.1 125,117.1 125,119.6 127.9,119.6 127.9,117.1 129.1,117.1 129.1,123.4 127.9,123.4 "/><polygon class="st3" points="65.6,133.7 65.6,128.2 69.7,128.2 69.7,129.5 67,129.5 67,130.3 69.6,130.3 69.6,131.5 67,131.5 67,132.5 69.7,132.5 69.7,133.7 65.6,133.7 "/><path class="st3" d="M73.5 133.8c-.8 0-1.6-.2-2.3-.5l.3-1.1c.6.2 1.3.3 2 .4.6 0 1-.1 1-.5s-.3-.3-1.2-.7c-1.1-.4-1.8-.8-1.8-1.8s.7-1.5 2.3-1.5c.7 0 1.3.1 2 .3l-.2 1.1c-.6-.1-1.2-.2-1.8-.2-.8 0-.9.1-.9.4s.3.4 1.4.7 1.7.6 1.7 1.6-1.1 1.8-2.5 1.8z"/><polygon class="st3" points="80,129.5 80,133.7 78.6,133.7 78.6,129.5 76.9,129.5 76.9,128.2 81.8,128.2 81.8,129.5 80,129.5 "/><polygon class="st3" points="82.2,133.7 82.2,132.3 83.7,132.3 83.7,133.7 82.2,133.7 "/><polygon class="st3" points="89.1,133.7 89.1,129.5 87.7,129.7 87.6,128.6 89.1,128.3 90.4,128.3 90.4,133.7 89.1,133.7 "/><path class="st3" d="M94.4 129.4c-.5 0-.8.3-.8.6s.3.6.8.6.8-.3.8-.6-.4-.6-.8-.6zm-.6 4.4c-.4 0-.9-.1-1.3-.2l.2-1.1c.3.1.7.1 1 .1.7.1 1.4-.4 1.5-1.1v-.2c-.3.3-.7.4-1.1.4-.9.1-1.7-.6-1.8-1.5v-.2a1.97 1.97 0 0 1 2-1.8h.1c1.2-.1 2.2.8 2.3 2v.4c.2 1.5-.9 2.9-2.5 3.1-.1.1-.2.1-.4.1zm6.3-4.5c-.3 0-.6.2-.6.5v.1a.65.65 0 0 0 .6.6.65.65 0 0 0 .6-.6c.1-.4-.2-.6-.6-.6zm0 2.1c-.6 0-.8.3-.8.6s.3.6.8.6.8-.3.8-.6-.1-.6-.8-.6zm0 2.4c-1.3 0-2.2-.7-2.2-1.7 0-.6.4-1.1.9-1.3-.3-.3-.6-.7-.6-1.1 0-.9.8-1.4 1.9-1.4s1.9.5 1.9 1.4c0 .4-.2.8-.6 1.1.5.2.9.7.9 1.3 0 1-.8 1.7-2.2 1.7zm5.9-4.4c-.8 0-1 .8-1 1.6s.2 1.6 1 1.6 1-.8 1-1.6-.2-1.6-1-1.6zm0 4.4c-1.5 0-2.3-1.3-2.3-2.8s.8-2.8 2.3-2.8 2.3 1.3 2.3 2.8-.8 2.8-2.3 2.8z"/><path class="st0" d="M149 137v-2.5l-1 1.8h-.5l-1.1-1.8v2.5h-.9v-4.2h.9l1.4 2.3 1.3-2.3h.9v4.2h-1zm-5.8-3.4v3.4h-1v-3.4h-1.4v-.8h3.7v.8h-1.3z"/></g><defs><path id="G" d="M162.9 80.3c-8.2-1.5-21.2-8.3-74.3-8.3s-73.8 7.9-79.2 9c-4 .8-6.6 4.7-5.7 8.7 0 .2.1.4.1.6.4 1.9 1 3.8 1.6 5.7 1.5 4.7 3.2 9.4 4.8 14.1 1.5 4.2 5 12.5 5.2 12.8 2.9 4.2 36.3.6 36.3.6l-17.6-8.9c12-2.4 29.5-4.2 52-4.2 23.3 0 40.8 1.6 52.7 3.8l-18.2 9.2s34.8 3.9 36.8-1.2 3.2-8.5 4.7-12.8c1.7-4.7 3.4-9.4 4.8-14.1.6-1.9 1.2-3.8 1.6-5.7 1.1-3.9-1.1-8-5-9.1-.3-.1-.5-.2-.6-.2z"/></defs></svg>